<?xml version="1.0" encoding="utf-8"?>
<!-- Generator: Adobe Illustrator 16.0.3, SVG Export Plug-In . SVG Version: 6.00 Build 0)  -->
<!DOCTYPE svg PUBLIC "-//W3C//DTD SVG 1.1//EN" "http://www.w3.org/Graphics/SVG/1.1/DTD/svg11.dtd">
<svg version="1.1" id="Capa_1" xmlns="http://www.w3.org/2000/svg" xmlns:xlink="http://www.w3.org/1999/xlink" x="0px" y="0px"
	 width="20px" height="20px" viewBox="0 0 20 20" enable-background="new 0 0 20 20" xml:space="preserve">
<g>
	<g>
		<path d="M16.881,2.634c-1.165-0.201-2.366-0.037-3.532,0.078c-1.161,0.115-2.373,0.254-3.524-0.018
			C8.47,2.374,7.613,1.485,6.98,0.282C6.807,0.753,6.633,1.226,6.458,1.696c-1.14,3.084-2.28,6.169-3.42,9.253l-3.077,8.329
			l1.188,0.439l2.77-7.496c0.515,0.549,1.149,0.947,1.963,1.141c1.151,0.273,2.363,0.133,3.525,0.018
			c1.165-0.115,2.365-0.277,3.532-0.078c1.498,0.258,2.466,1.156,3.158,2.477c1.314-3.557,2.628-7.113,3.941-10.67
			C19.347,3.79,18.38,2.892,16.881,2.634z M17.027,8.966c-0.586-0.495-1.215-0.826-1.974-0.972c-0.254,0.685-0.506,1.368-0.76,2.054
			c0.76,0.146,1.388,0.477,1.976,0.972c-0.233,0.628-0.466,1.255-0.697,1.884c-0.586-0.494-1.216-0.826-1.974-0.973
			c0.231-0.628,0.463-1.255,0.695-1.883c-0.771-0.125-1.526-0.124-2.307-0.076c-0.231,0.627-0.463,1.255-0.694,1.885
			c-0.807,0.064-1.61,0.156-2.417,0.221c0.232-0.627,0.464-1.256,0.696-1.883c-0.78,0.049-1.534,0.049-2.307-0.076
			c-0.232,0.628-0.464,1.256-0.696,1.885c-0.758-0.146-1.388-0.479-1.974-0.974c0.232-0.627,0.464-1.255,0.696-1.882
			c0.586,0.494,1.215,0.825,1.974,0.971c0.253-0.685,0.507-1.369,0.76-2.055C7.267,7.919,6.637,7.588,6.051,7.093
			c0.254-0.684,0.507-1.369,0.76-2.054c0.585,0.495,1.215,0.825,1.974,0.972C9.017,5.382,9.248,4.755,9.48,4.128
			c0.771,0.123,1.526,0.123,2.305,0.075c-0.231,0.628-0.463,1.255-0.695,1.884c0.806-0.065,1.61-0.158,2.417-0.223
			c0.231-0.628,0.463-1.256,0.695-1.884c0.779-0.048,1.535-0.049,2.307,0.076c-0.232,0.628-0.464,1.255-0.696,1.884
			c0.759,0.146,1.388,0.477,1.974,0.971C17.533,7.597,17.281,8.28,17.027,8.966z"/>
		<path fill="#42C35F" d="M10.331,8.14c-0.253,0.686-0.506,1.371-0.759,2.055c0.807-0.064,1.61-0.158,2.415-0.223
			c0.254-0.686,0.508-1.369,0.76-2.055C11.941,7.983,11.138,8.075,10.331,8.14z"/>
		<path fill="#42C35F" d="M10.331,8.14c0.253-0.684,0.507-1.369,0.759-2.053c-0.779,0.047-1.533,0.049-2.307-0.076
			C8.531,6.695,8.278,7.38,8.025,8.063C8.797,8.189,9.552,8.188,10.331,8.14z"/>
		<path fill="#42C35F" d="M13.507,5.864c-0.254,0.684-0.506,1.369-0.76,2.053c0.779-0.047,1.533-0.047,2.307,0.077
			c0.253-0.685,0.506-1.37,0.759-2.054C15.04,5.815,14.286,5.816,13.507,5.864z"/>
	</g>
</g>
</svg>
