<?xml version="1.0" encoding="utf-8"?>
<!-- Generator: Adobe Illustrator 16.0.3, SVG Export Plug-In . SVG Version: 6.00 Build 0)  -->
<!DOCTYPE svg PUBLIC "-//W3C//DTD SVG 1.1//EN" "http://www.w3.org/Graphics/SVG/1.1/DTD/svg11.dtd">
<svg version="1.1" id="Admin" xmlns="http://www.w3.org/2000/svg" xmlns:xlink="http://www.w3.org/1999/xlink" x="0px" y="0px"
	 width="170px" height="50px" viewBox="4.948 4.553 170 50" enable-background="new 4.948 4.553 170 50" xml:space="preserve">
<g>
	<g>
		<path fill="none" stroke="#FFFFFF" stroke-width="0.98" stroke-miterlimit="10" d="M155.522,22.963
			c0.583-1.251,1.853-2.122,3.328-2.122c2.024,0,3.667,1.643,3.667,3.667c0,0.696-0.194,1.346-0.53,1.9 M155.182,10.713v6.244h7.743
			c0,0-2.015-6.244-4.875-6.244H155.182z M135.498,22.601h-2.586V5.294h19.783v17.307 M162.058,22.601h4.05v-0.822
			c0-2.757-0.352-3.386-0.953-4.771c-1.354-3.115-3.646-8.217-6.681-8.217h-5.778v13.808"/>
		<path fill="none" stroke="#52BA64" stroke-width="0.98" stroke-miterlimit="10" d="M157.269,22.964
			c0.402-0.41,0.962-0.666,1.581-0.666c1.221,0,2.209,0.991,2.209,2.21c0,0.507-0.17,0.974-0.457,1.348"/>
		<path fill="none" stroke="#FFFFFF" stroke-width="0.98" stroke-miterlimit="10" d="M140.823,25.316
			c-0.325,0.821-1.124,1.402-2.062,1.402c-1.219,0-2.211-0.989-2.211-2.21c0-1.219,0.99-2.21,2.211-2.21
			c0.936,0,1.733,0.579,2.059,1.398 M140.82,27.545c-0.586,0.399-1.295,0.631-2.059,0.631c-2.024,0-3.667-1.642-3.667-3.667
			c0-2.024,1.643-3.665,3.667-3.665c1.473,0,2.742,0.867,3.326,2.12"/>
		<path fill="#52BA64" d="M139.243,24.508c0,0.266-0.214,0.48-0.48,0.48c-0.264,0-0.479-0.215-0.479-0.48
			c0-0.264,0.215-0.479,0.479-0.479C139.029,24.029,139.243,24.242,139.243,24.508"/>
		<path fill="none" stroke="#FFFFFF" stroke-width="0.98" stroke-miterlimit="10" d="M165.968,19.446h-2.498v1.696h2.629
			C166.084,20.445,166.039,19.9,165.968,19.446z"/>
		
			<line fill="none" stroke="#52BA64" stroke-width="0.98" stroke-miterlimit="10" x1="155.244" y1="18.626" x2="157.059" y2="18.626"/>
		<path fill="none" stroke="#FFFFFF" stroke-width="0.98" stroke-miterlimit="10" d="M163.092,42.178
			c0-2.027,1.638-3.666,3.665-3.666s3.669,1.639,3.669,3.666c0,2.025-1.642,3.667-3.669,3.667S163.092,44.203,163.092,42.178z
			 M163.092,28.384v6.241h7.743c0,0-2.015-6.241-4.879-6.241H163.092z M143.405,40.27h-2.587V22.964H160.6V40.27h-10.8
			 M169.965,40.27h4.048v-0.822c0-2.755-0.352-3.386-0.951-4.771c-1.352-3.115-3.645-8.215-6.681-8.215h-5.78v13.807h2.878
			 M163.091,42.178h-12.755 M163.627,40.27H160.6h-10.8 M162.601,24.508h4.306v-1.907h-4.39 M159.012,14.899l2.059,2.056
			 M157.815,16.096l2.395-2.395"/>
		<circle fill="none" stroke="#52BA64" stroke-width="0.98" stroke-miterlimit="10" cx="166.757" cy="42.176" r="2.211"/>
		<path fill="#FFFFFF" d="M167.237,42.176c0,0.267-0.215,0.48-0.48,0.48c-0.264,0-0.48-0.214-0.48-0.48
			c0-0.264,0.217-0.477,0.48-0.477C167.022,41.699,167.237,41.914,167.237,42.176"/>
		<path fill="none" stroke="#FFFFFF" stroke-width="0.98" stroke-miterlimit="10" d="M144.46,42.176c0-1.22,0.991-2.208,2.211-2.208
			c1.219,0,2.209,0.988,2.209,2.208c0,1.221-0.99,2.213-2.209,2.213C145.451,44.389,144.46,43.398,144.46,42.176z M143.003,42.176
			c0-2.025,1.641-3.664,3.668-3.664c2.025,0,3.667,1.639,3.667,3.664c0,2.027-1.642,3.669-3.667,3.669
			C144.643,45.845,143.003,44.203,143.003,42.176z"/>
		<path fill="#52BA64" d="M147.147,42.176c0,0.267-0.214,0.48-0.477,0.48c-0.266,0-0.48-0.214-0.48-0.48
			c0-0.264,0.215-0.477,0.48-0.477C146.933,41.699,147.147,41.914,147.147,42.176"/>
		<path fill="none" stroke="#FFFFFF" stroke-width="0.98" stroke-miterlimit="10" d="M173.874,37.116h-2.498v1.695h2.63
			C173.989,38.115,173.945,37.569,173.874,37.116z"/>
		
			<line fill="none" stroke="#52BA64" stroke-width="0.98" stroke-miterlimit="10" x1="163.153" y1="36.294" x2="164.966" y2="36.294"/>
		<path fill="none" stroke="#FFFFFF" stroke-width="0.98" stroke-miterlimit="10" d="M148.88,17.398h-12.55V8.793h12.55V17.398z
			 M170.51,42.176h4.306V40.27h-4.392 M166.922,32.567l2.058,2.059 M165.723,33.765l2.396-2.396"/>
		<path fill="none" stroke="#52BA64" stroke-width="0.98" stroke-miterlimit="10" d="M145.855,15.677l-1.989-5.047 M139.355,15.677
			l1.986-5.047"/>
		
			<rect x="144.435" y="26.719" fill="none" stroke="#FFFFFF" stroke-width="0.98" stroke-miterlimit="10" width="12.55" height="8.605"/>
		<path fill="none" stroke="#52BA64" stroke-width="0.98" stroke-miterlimit="10" d="M153.959,33.604l-1.987-5.047 M147.462,33.604
			l1.987-5.047"/>
	</g>
	<g enable-background="new    ">
		<path fill="#FFFFFF" d="M9.16,16.895c1.353,0,2.426,0.566,3.22,1.698l-1.257,1.08c-0.368-0.397-0.703-0.679-1.003-0.848
			c-0.302-0.169-0.643-0.254-1.025-0.254c-0.383,0-0.702,0.121-0.959,0.364s-0.386,0.592-0.386,1.048
			c0,0.338,0.128,0.614,0.386,0.827s0.577,0.412,0.959,0.596c0.382,0.183,0.794,0.363,1.235,0.54
			c0.441,0.176,0.853,0.386,1.235,0.629c0.382,0.242,0.702,0.544,0.959,0.904c0.257,0.361,0.386,0.812,0.386,1.356
			c0,1.118-0.331,1.985-0.992,2.603c-0.662,0.617-1.559,0.926-2.69,0.926c-0.574,0-1.084-0.085-1.533-0.254
			c-0.449-0.168-0.842-0.396-1.18-0.684c-0.338-0.287-0.625-0.606-0.86-0.959c-0.235-0.353-0.426-0.72-0.573-1.103l1.566-0.86
			c0.25,0.603,0.587,1.117,1.014,1.543c0.426,0.427,0.949,0.64,1.566,0.64c0.559,0,0.996-0.143,1.312-0.43
			c0.316-0.286,0.474-0.724,0.474-1.312c0-0.338-0.125-0.614-0.375-0.827s-0.566-0.404-0.948-0.574
			c-0.383-0.168-0.794-0.337-1.235-0.507c-0.441-0.169-0.853-0.382-1.235-0.64c-0.383-0.257-0.698-0.577-0.948-0.959
			c-0.25-0.382-0.375-0.875-0.375-1.478c0-0.427,0.077-0.827,0.231-1.202c0.154-0.375,0.371-0.698,0.651-0.971
			c0.279-0.271,0.621-0.489,1.025-0.65C8.209,16.976,8.66,16.895,9.16,16.895z"/>
		<path fill="#FFFFFF" d="M31.192,28.186h-1.853v-7.433c0-1.455-0.595-2.183-1.786-2.183c-0.397,0-0.775,0.11-1.136,0.331
			c-0.36,0.22-0.677,0.548-0.948,0.981c-0.272,0.434-0.485,0.963-0.64,1.588c-0.154,0.625-0.231,1.341-0.231,2.15v4.565h-1.853
			v-7.433c0-1.455-0.595-2.183-1.787-2.183c-0.396,0-0.775,0.11-1.135,0.331c-0.361,0.22-0.676,0.548-0.948,0.981
			c-0.272,0.434-0.485,0.963-0.64,1.588c-0.154,0.625-0.231,1.341-0.231,2.15v4.565h-1.852V17.072h1.852v2.05
			c0.353-0.706,0.824-1.253,1.412-1.643s1.271-0.584,2.051-0.584s1.426,0.202,1.941,0.607c0.514,0.404,0.86,0.974,1.037,1.708
			c0.382-0.735,0.882-1.304,1.5-1.708c0.618-0.405,1.323-0.607,2.117-0.607c1.014,0,1.79,0.309,2.326,0.926
			c0.537,0.617,0.805,1.463,0.805,2.537V28.186z"/>
		<path fill="#FFFFFF" d="M42.925,28.186h-1.457l-0.309-1.566c-0.352,0.515-0.812,0.934-1.378,1.257
			c-0.565,0.324-1.269,0.485-2.106,0.485c-0.47,0-0.912-0.063-1.322-0.187c-0.412-0.125-0.775-0.328-1.092-0.607
			s-0.566-0.629-0.75-1.047c-0.184-0.419-0.275-0.93-0.275-1.533c0-0.588,0.117-1.11,0.354-1.566
			c0.234-0.456,0.572-0.838,1.014-1.146c0.441-0.309,0.971-0.541,1.588-0.695s1.309-0.231,2.073-0.231h1.808v-0.485
			c0-0.853-0.235-1.448-0.705-1.786c-0.471-0.339-1.044-0.508-1.72-0.508c-0.573,0-1.074,0.151-1.5,0.452
			c-0.427,0.301-0.698,0.731-0.816,1.291l-1.632-0.375c0.162-0.941,0.596-1.683,1.301-2.228c0.705-0.543,1.588-0.815,2.647-0.815
			c0.617,0,1.187,0.081,1.708,0.243s0.975,0.412,1.356,0.75c0.382,0.338,0.681,0.772,0.894,1.302c0.213,0.529,0.32,1.162,0.32,1.896
			V28.186z M36.132,24.989c0,0.529,0.158,0.945,0.475,1.246c0.315,0.301,0.768,0.452,1.355,0.452c0.354,0,0.717-0.059,1.092-0.176
			c0.375-0.118,0.709-0.31,1.004-0.574c0.293-0.265,0.535-0.614,0.728-1.047c0.19-0.434,0.286-0.967,0.286-1.599v-0.265h-1.984
			c-0.955,0-1.688,0.169-2.193,0.507C36.385,23.871,36.132,24.356,36.132,24.989z"/>
		<path fill="#FFFFFF" d="M52.319,18.879c-0.412-0.206-0.846-0.309-1.301-0.309c-0.383,0-0.758,0.11-1.125,0.331
			c-0.368,0.22-0.698,0.559-0.992,1.014c-0.295,0.456-0.533,1.022-0.717,1.698c-0.185,0.677-0.275,1.463-0.275,2.36v4.212h-1.854
			V17.072h1.854v1.896c0.161-0.309,0.367-0.591,0.617-0.849c0.25-0.257,0.518-0.475,0.805-0.65c0.287-0.177,0.588-0.316,0.904-0.419
			c0.316-0.102,0.629-0.154,0.938-0.154s0.599,0.033,0.871,0.099c0.271,0.066,0.488,0.144,0.65,0.232L52.319,18.879z"/>
		<path fill="#FFFFFF" d="M54.016,17.072h1.918v-3.331l1.854-1.169v4.5h2.91v1.676h-2.91v6.109c0,0.603,0.128,1.058,0.386,1.367
			c0.257,0.309,0.62,0.463,1.092,0.463c0.249,0,0.47-0.026,0.661-0.077c0.191-0.051,0.39-0.144,0.596-0.276l0.441,1.61
			c-0.266,0.162-0.552,0.271-0.86,0.331c-0.309,0.059-0.625,0.088-0.948,0.088c-0.941,0-1.713-0.294-2.315-0.882
			c-0.604-0.587-0.905-1.514-0.905-2.778v-5.955h-1.918V17.072z"/>
		<path fill="#FFFFFF" d="M68.749,17.072h1.587v-0.574c0-0.661,0.11-1.238,0.331-1.731s0.514-0.9,0.883-1.224
			c0.367-0.324,0.797-0.565,1.289-0.728c0.492-0.161,1.018-0.243,1.577-0.243h4.433v15.614h-1.853V14.248h-2.603
			c-0.646,0-1.176,0.184-1.588,0.552c-0.411,0.367-0.617,0.926-0.617,1.675v0.596h2.559v1.676h-2.559v9.439h-1.853v-9.439h-1.587
			V17.072z"/>
		<path fill="#FFFFFF" d="M91.947,23.026h-8.159c0.029,0.515,0.113,0.993,0.254,1.434c0.14,0.441,0.338,0.827,0.596,1.157
			c0.256,0.331,0.576,0.593,0.959,0.783c0.382,0.191,0.822,0.287,1.322,0.287c0.824,0,1.467-0.18,1.931-0.54
			c0.463-0.36,0.849-0.886,1.158-1.577l1.631,0.706c-0.515,1.089-1.144,1.875-1.886,2.36s-1.687,0.728-2.834,0.728
			c-0.837,0-1.572-0.158-2.205-0.475c-0.632-0.315-1.157-0.739-1.576-1.268c-0.419-0.529-0.731-1.139-0.938-1.83
			s-0.309-1.412-0.309-2.162c0-0.75,0.103-1.47,0.309-2.161s0.519-1.301,0.938-1.83c0.419-0.53,0.944-0.952,1.576-1.269
			c0.633-0.315,1.368-0.474,2.205-0.474c0.824,0,1.549,0.147,2.174,0.441c0.625,0.294,1.15,0.684,1.575,1.169
			c0.426,0.485,0.746,1.044,0.959,1.676s0.32,1.293,0.32,1.984V23.026z M86.919,18.571c-0.867,0-1.547,0.262-2.039,0.783
			c-0.492,0.522-0.819,1.187-0.981,1.996h6.109c-0.163-0.794-0.493-1.456-0.993-1.985C88.514,18.836,87.815,18.571,86.919,18.571z"
			/>
		<path fill="#FFFFFF" d="M104.583,23.026h-8.16c0.03,0.515,0.114,0.993,0.254,1.434c0.141,0.441,0.339,0.827,0.597,1.157
			c0.256,0.331,0.576,0.593,0.959,0.783c0.381,0.191,0.822,0.287,1.322,0.287c0.824,0,1.468-0.18,1.93-0.54
			c0.464-0.36,0.849-0.886,1.159-1.577l1.631,0.706c-0.515,1.089-1.144,1.875-1.885,2.36c-0.743,0.485-1.688,0.728-2.835,0.728
			c-0.837,0-1.573-0.158-2.206-0.475c-0.632-0.315-1.157-0.739-1.576-1.268c-0.418-0.529-0.731-1.139-0.936-1.83
			c-0.207-0.691-0.31-1.412-0.31-2.162c0-0.75,0.103-1.47,0.31-2.161c0.204-0.691,0.518-1.301,0.936-1.83
			c0.419-0.53,0.944-0.952,1.576-1.269c0.633-0.315,1.369-0.474,2.206-0.474c0.824,0,1.549,0.147,2.173,0.441
			c0.625,0.294,1.15,0.684,1.576,1.169c0.426,0.485,0.746,1.044,0.959,1.676s0.32,1.293,0.32,1.984V23.026z M99.554,18.571
			c-0.867,0-1.547,0.262-2.039,0.783c-0.493,0.522-0.82,1.187-0.982,1.996h6.11c-0.163-0.794-0.494-1.456-0.994-1.985
			C101.151,18.836,100.451,18.571,99.554,18.571z"/>
		<path fill="#FFFFFF" d="M106.369,17.072h1.919v-3.331l1.854-1.169v4.5h2.911v1.676h-2.911v6.109c0,0.603,0.127,1.058,0.385,1.367
			c0.258,0.309,0.621,0.463,1.093,0.463c0.249,0,0.469-0.026,0.66-0.077c0.191-0.051,0.39-0.144,0.597-0.276l0.44,1.61
			c-0.264,0.162-0.552,0.271-0.86,0.331c-0.309,0.059-0.624,0.088-0.947,0.088c-0.941,0-1.714-0.294-2.316-0.882
			c-0.603-0.587-0.904-1.514-0.904-2.778v-5.955h-1.919V17.072z"/>
	</g>
	<g enable-background="new    ">
		<path fill="#FFFFFF" d="M21.025,49.137h-1.853v-7.433c0-1.455-0.595-2.184-1.786-2.184c-0.397,0-0.775,0.111-1.136,0.331
			c-0.36,0.221-0.677,0.548-0.948,0.981c-0.272,0.435-0.485,0.964-0.64,1.588c-0.154,0.625-0.231,1.342-0.231,2.15v4.565h-1.853
			v-7.433c0-1.455-0.595-2.184-1.787-2.184c-0.396,0-0.775,0.111-1.135,0.331c-0.361,0.221-0.676,0.548-0.948,0.981
			c-0.272,0.435-0.485,0.964-0.64,1.588c-0.154,0.625-0.231,1.342-0.231,2.15v4.565H5.985V38.022h1.852v2.051
			C8.19,39.366,8.66,38.82,9.249,38.43c0.588-0.39,1.271-0.585,2.051-0.585s1.426,0.202,1.941,0.607
			c0.514,0.404,0.86,0.974,1.037,1.708c0.382-0.734,0.882-1.304,1.499-1.708c0.618-0.405,1.324-0.607,2.118-0.607
			c1.014,0,1.79,0.31,2.326,0.927s0.805,1.463,0.805,2.536V49.137z"/>
		<path fill="#FFFFFF" d="M32.757,49.137h-1.455l-0.309-1.566c-0.353,0.516-0.812,0.934-1.378,1.257
			c-0.566,0.324-1.269,0.485-2.106,0.485c-0.471,0-0.912-0.063-1.323-0.187c-0.412-0.125-0.776-0.328-1.092-0.607
			c-0.316-0.278-0.566-0.629-0.75-1.047c-0.184-0.42-0.276-0.93-0.276-1.533c0-0.588,0.118-1.11,0.353-1.565
			c0.235-0.456,0.574-0.838,1.015-1.146c0.441-0.31,0.97-0.541,1.587-0.695c0.618-0.154,1.309-0.231,2.073-0.231h1.809v-0.485
			c0-0.853-0.235-1.447-0.706-1.786c-0.471-0.338-1.044-0.508-1.72-0.508c-0.573,0-1.074,0.151-1.5,0.452
			c-0.427,0.302-0.699,0.731-0.816,1.291l-1.632-0.375c0.162-0.941,0.595-1.684,1.301-2.228c0.706-0.544,1.588-0.816,2.646-0.816
			c0.617,0,1.187,0.081,1.709,0.243c0.521,0.162,0.974,0.412,1.356,0.749c0.383,0.339,0.68,0.772,0.893,1.302
			c0.213,0.529,0.32,1.162,0.32,1.896V49.137z M25.965,45.939c0,0.529,0.158,0.945,0.474,1.246c0.316,0.302,0.768,0.452,1.356,0.452
			c0.353,0,0.716-0.059,1.092-0.176c0.375-0.118,0.709-0.31,1.003-0.574s0.537-0.614,0.728-1.047c0.191-0.434,0.287-0.967,0.287-1.6
			v-0.265H28.92c-0.956,0-1.687,0.169-2.194,0.508C26.219,44.822,25.965,45.307,25.965,45.939z"/>
		<path fill="#FFFFFF" d="M44.8,49.137h-1.854v-7.345c0-0.764-0.166-1.334-0.496-1.708c-0.33-0.375-0.805-0.563-1.422-0.563
			c-0.412,0-0.809,0.115-1.191,0.343s-0.721,0.555-1.014,0.98c-0.295,0.427-0.529,0.948-0.706,1.566
			c-0.177,0.617-0.265,1.309-0.265,2.073v4.653H36V38.022h1.853v2.051c0.412-0.72,0.934-1.271,1.565-1.653
			c0.632-0.383,1.338-0.574,2.117-0.574c1.015,0,1.812,0.302,2.394,0.904c0.58,0.604,0.871,1.456,0.871,2.559V49.137z"/>
		<path fill="#FFFFFF" d="M56.378,49.137h-1.457l-0.309-1.566c-0.352,0.516-0.813,0.934-1.378,1.257
			c-0.565,0.324-1.269,0.485-2.106,0.485c-0.47,0-0.912-0.063-1.322-0.187c-0.412-0.125-0.776-0.328-1.092-0.607
			c-0.316-0.278-0.566-0.629-0.75-1.047c-0.184-0.42-0.275-0.93-0.275-1.533c0-0.588,0.117-1.11,0.354-1.565
			c0.234-0.456,0.572-0.838,1.014-1.146c0.441-0.31,0.971-0.541,1.588-0.695s1.309-0.231,2.073-0.231h1.808v-0.485
			c0-0.853-0.235-1.447-0.705-1.786c-0.471-0.338-1.044-0.508-1.721-0.508c-0.573,0-1.073,0.151-1.499,0.452
			c-0.427,0.302-0.698,0.731-0.816,1.291l-1.632-0.375c0.162-0.941,0.596-1.684,1.301-2.228s1.588-0.816,2.646-0.816
			c0.618,0,1.188,0.081,1.709,0.243s0.975,0.412,1.356,0.749c0.382,0.339,0.681,0.772,0.894,1.302s0.32,1.162,0.32,1.896V49.137z
			 M49.585,45.939c0,0.529,0.158,0.945,0.474,1.246c0.316,0.302,0.769,0.452,1.356,0.452c0.354,0,0.717-0.059,1.092-0.176
			c0.375-0.118,0.709-0.31,1.003-0.574s0.536-0.614,0.728-1.047c0.191-0.434,0.287-0.967,0.287-1.6v-0.265H52.54
			c-0.956,0-1.688,0.169-2.193,0.508C49.839,44.822,49.585,45.307,49.585,45.939z"/>
		<path fill="#FFFFFF" d="M60.038,41.595c0-0.574,0.1-1.093,0.297-1.556c0.199-0.463,0.475-0.855,0.828-1.18
			c0.354-0.323,0.764-0.573,1.234-0.749c0.471-0.177,0.979-0.266,1.521-0.266c0.368,0,0.721,0.044,1.059,0.133
			c0.339,0.088,0.654,0.214,0.949,0.374l1.984-1.124l0.838,1.521l-1.5,0.839c0.367,0.572,0.552,1.242,0.552,2.007
			c0,0.572-0.099,1.091-0.298,1.554c-0.198,0.463-0.475,0.854-0.827,1.169c-0.353,0.317-0.765,0.559-1.235,0.729
			c-0.471,0.169-0.978,0.253-1.521,0.253c-0.734,0-1.375-0.132-1.918-0.397c-0.484,0.235-0.728,0.597-0.728,1.081
			c0,0.618,0.419,0.927,1.257,0.927h2.624c1.044,0,1.886,0.257,2.525,0.771s0.959,1.279,0.959,2.294c0,0.69-0.124,1.279-0.375,1.765
			c-0.25,0.484-0.592,0.881-1.024,1.19c-0.435,0.309-0.936,0.533-1.5,0.672c-0.566,0.14-1.166,0.21-1.799,0.21
			c-0.705,0-1.348-0.081-1.928-0.242c-0.582-0.162-1.078-0.4-1.49-0.717s-0.73-0.702-0.959-1.158
			c-0.228-0.456-0.342-0.97-0.342-1.544c0-0.515,0.1-0.966,0.299-1.355c0.197-0.39,0.443-0.709,0.738-0.96
			c-0.235-0.206-0.42-0.452-0.551-0.738c-0.133-0.287-0.199-0.629-0.199-1.026c0-0.47,0.121-0.878,0.363-1.223
			c0.243-0.347,0.57-0.622,0.982-0.827c-0.25-0.309-0.449-0.666-0.596-1.07C60.11,42.546,60.038,42.095,60.038,41.595z
			 M62.618,48.497c-0.147,0-0.291-0.004-0.43-0.011c-0.141-0.008-0.27-0.019-0.387-0.033c-0.264,0.205-0.451,0.444-0.562,0.716
			s-0.166,0.577-0.166,0.916c0,0.617,0.239,1.121,0.718,1.511c0.477,0.39,1.193,0.584,2.148,0.584c0.971,0,1.68-0.194,2.129-0.584
			s0.672-0.871,0.672-1.445c0-0.617-0.176-1.047-0.528-1.29c-0.353-0.242-0.802-0.363-1.345-0.363H62.618z M61.846,41.595
			c0,0.705,0.205,1.234,0.617,1.587c0.412,0.354,0.896,0.53,1.455,0.53s1.044-0.177,1.456-0.53c0.411-0.353,0.617-0.882,0.617-1.587
			c0-0.706-0.206-1.243-0.617-1.611c-0.412-0.367-0.897-0.55-1.456-0.55s-1.043,0.183-1.455,0.55
			C62.052,40.352,61.846,40.889,61.846,41.595z"/>
		<path fill="#FFFFFF" d="M80.613,43.976h-8.16c0.03,0.516,0.114,0.993,0.254,1.434c0.14,0.441,0.338,0.827,0.595,1.157
			c0.258,0.331,0.578,0.593,0.96,0.783c0.382,0.192,0.823,0.287,1.323,0.287c0.822,0,1.467-0.181,1.93-0.54
			c0.463-0.36,0.849-0.886,1.158-1.577l1.632,0.705c-0.515,1.089-1.144,1.875-1.886,2.36s-1.688,0.728-2.834,0.728
			c-0.838,0-1.574-0.158-2.206-0.475c-0.632-0.314-1.157-0.738-1.576-1.268s-0.731-1.139-0.937-1.83
			c-0.207-0.69-0.309-1.411-0.309-2.161s0.102-1.471,0.309-2.161c0.205-0.691,0.518-1.301,0.937-1.83
			c0.419-0.53,0.944-0.952,1.576-1.269c0.632-0.315,1.368-0.475,2.206-0.475c0.822,0,1.547,0.147,2.172,0.441
			c0.625,0.295,1.15,0.684,1.577,1.169c0.426,0.485,0.746,1.044,0.959,1.676c0.213,0.633,0.32,1.294,0.32,1.984V43.976z
			 M75.585,39.521c-0.867,0-1.548,0.262-2.04,0.783c-0.493,0.522-0.819,1.188-0.981,1.996h6.109
			c-0.162-0.794-0.493-1.456-0.993-1.985C77.18,39.786,76.481,39.521,75.585,39.521z"/>
		<path fill="#FFFFFF" d="M98.784,49.137h-1.853v-7.433c0-1.455-0.596-2.184-1.786-2.184c-0.396,0-0.776,0.111-1.136,0.331
			c-0.36,0.221-0.678,0.548-0.948,0.981c-0.272,0.435-0.485,0.964-0.641,1.588c-0.153,0.625-0.23,1.342-0.23,2.15v4.565h-1.852
			v-7.433c0-1.455-0.596-2.184-1.787-2.184c-0.397,0-0.775,0.111-1.137,0.331c-0.359,0.221-0.676,0.548-0.947,0.981
			c-0.271,0.435-0.484,0.964-0.639,1.588c-0.155,0.625-0.232,1.342-0.232,2.15v4.565h-1.853V38.022h1.853v2.051
			c0.354-0.706,0.822-1.253,1.411-1.643c0.588-0.39,1.271-0.585,2.052-0.585c0.778,0,1.425,0.202,1.94,0.607
			c0.514,0.404,0.86,0.974,1.035,1.708c0.383-0.734,0.883-1.304,1.5-1.708c0.618-0.405,1.323-0.607,2.117-0.607
			c1.015,0,1.789,0.31,2.327,0.927c0.537,0.617,0.805,1.463,0.805,2.536V49.137z"/>
		<path fill="#FFFFFF" d="M111.729,43.976h-8.16c0.03,0.516,0.114,0.993,0.255,1.434c0.14,0.441,0.338,0.827,0.596,1.157
			c0.256,0.331,0.576,0.593,0.959,0.783c0.382,0.192,0.822,0.287,1.322,0.287c0.824,0,1.468-0.181,1.93-0.54
			c0.464-0.36,0.849-0.886,1.159-1.577l1.631,0.705c-0.515,1.089-1.144,1.875-1.885,2.36c-0.743,0.485-1.688,0.728-2.835,0.728
			c-0.837,0-1.573-0.158-2.205-0.475c-0.633-0.314-1.157-0.738-1.577-1.268c-0.417-0.529-0.731-1.139-0.936-1.83
			c-0.207-0.69-0.309-1.411-0.309-2.161s0.102-1.471,0.309-2.161c0.204-0.691,0.519-1.301,0.936-1.83
			c0.42-0.53,0.944-0.952,1.577-1.269c0.632-0.315,1.368-0.475,2.205-0.475c0.824,0,1.549,0.147,2.173,0.441
			c0.626,0.295,1.15,0.684,1.576,1.169s0.746,1.044,0.959,1.676c0.214,0.633,0.32,1.294,0.32,1.984V43.976z M106.701,39.521
			c-0.866,0-1.547,0.262-2.039,0.783c-0.493,0.522-0.82,1.188-0.981,1.996h6.109c-0.163-0.794-0.493-1.456-0.994-1.985
			C108.298,39.786,107.597,39.521,106.701,39.521z"/>
		<path fill="#FFFFFF" d="M123.704,49.137h-1.853v-7.345c0-0.764-0.165-1.334-0.495-1.708c-0.332-0.375-0.806-0.563-1.423-0.563
			c-0.411,0-0.81,0.115-1.19,0.343c-0.384,0.228-0.722,0.555-1.016,0.98c-0.294,0.427-0.528,0.948-0.705,1.566
			c-0.177,0.617-0.266,1.309-0.266,2.073v4.653h-1.853V38.022h1.853v2.051c0.413-0.72,0.935-1.271,1.566-1.653
			c0.633-0.383,1.338-0.574,2.117-0.574c1.015,0,1.813,0.302,2.394,0.904c0.579,0.604,0.87,1.456,0.87,2.559V49.137z"/>
		<path fill="#FFFFFF" d="M126.086,38.022h1.918v-3.33l1.854-1.169v4.499h2.91v1.676h-2.91v6.109c0,0.603,0.127,1.058,0.385,1.367
			c0.257,0.309,0.62,0.463,1.093,0.463c0.249,0,0.469-0.025,0.66-0.077c0.191-0.051,0.39-0.144,0.596-0.275l0.441,1.609
			c-0.265,0.162-0.552,0.271-0.86,0.331c-0.309,0.059-0.624,0.088-0.947,0.088c-0.941,0-1.714-0.293-2.316-0.882
			c-0.603-0.588-0.905-1.514-0.905-2.778v-5.955h-1.918V38.022z"/>
	</g>
</g>
</svg>
