<?xml version="1.0" encoding="utf-8"?>
<!-- Generator: Adobe Illustrator 16.0.3, SVG Export Plug-In . SVG Version: 6.00 Build 0)  -->
<!DOCTYPE svg PUBLIC "-//W3C//DTD SVG 1.1//EN" "http://www.w3.org/Graphics/SVG/1.1/DTD/svg11.dtd">
<svg version="1.1" id="Capa_1" xmlns="http://www.w3.org/2000/svg" xmlns:xlink="http://www.w3.org/1999/xlink" x="0px" y="0px"
	 width="60px" height="60px" viewBox="366 276 60 60" enable-background="new 366 276 60 60" xml:space="preserve">
<g>
	<path fill="none" stroke="#000000" stroke-width="2.5" stroke-miterlimit="10" d="M388.484,333.5
		c-10.977,0-19.876-8.899-19.876-19.877s8.899-19.876,19.876-19.876c10.979,0,19.877,8.898,19.877,19.876"/>
	<circle fill="none" stroke="#000000" stroke-width="2.5" stroke-miterlimit="10" cx="388.485" cy="313.623" r="11.156"/>
	<path fill="none" stroke="#41C363" stroke-width="2.5" stroke-miterlimit="10" d="M410.915,293.993
		c0-2.222,1.802-4.022,4.021-4.022c2.222,0,4.022,1.801,4.022,4.022"/>
	<circle fill="none" stroke="#000000" stroke-width="2.5" stroke-miterlimit="10" cx="414.937" cy="286.955" r="8.455"/>
	
		<line fill="none" stroke="#000000" stroke-width="2.5" stroke-miterlimit="10" x1="399.641" y1="313.623" x2="377.329" y2="313.623"/>
	
		<line fill="none" stroke="#000000" stroke-width="2.5" stroke-miterlimit="10" x1="396.373" y1="305.734" x2="380.597" y2="321.511"/>
	
		<line fill="none" stroke="#000000" stroke-width="2.5" stroke-miterlimit="10" x1="396.373" y1="321.511" x2="380.596" y2="305.734"/>
	
		<line fill="none" stroke="#41C363" stroke-width="2.5" stroke-miterlimit="10" x1="414.937" y1="289.971" x2="414.937" y2="282.328"/>
	<polyline fill="none" stroke="#000000" stroke-width="2.5" stroke-miterlimit="10" points="408.361,313.623 412.357,313.623 
		412.357,329.211 420.861,329.211 420.861,305.734 414.937,305.734 414.937,295.41 	"/>
	<path fill="none" stroke="#41C363" stroke-width="2.5" stroke-miterlimit="10" d="M408.361,313.623
		c0,10.978-8.898,19.877-19.877,19.877"/>
</g>
</svg>
