<?xml version="1.0" encoding="utf-8"?>
<!-- Generator: Adobe Illustrator 16.0.3, SVG Export Plug-In . SVG Version: 6.00 Build 0)  -->
<!DOCTYPE svg PUBLIC "-//W3C//DTD SVG 1.1//EN" "http://www.w3.org/Graphics/SVG/1.1/DTD/svg11.dtd">
<svg version="1.1" id="Capa_1" xmlns="http://www.w3.org/2000/svg" xmlns:xlink="http://www.w3.org/1999/xlink" x="0px" y="0px"
	 width="60px" height="60px" viewBox="366 276 60 60" enable-background="new 366 276 60 60" xml:space="preserve">
<g>
	<path fill="none" stroke="#000000" stroke-width="2.5" stroke-miterlimit="10" d="M396,333.5c-15.188,0-27.5-12.313-27.5-27.5
		c0-15.188,12.312-27.501,27.5-27.501c15.188,0,27.5,12.313,27.5,27.501"/>
	<path fill="none" stroke="#41C363" stroke-width="2.5" stroke-miterlimit="10" d="M423.5,306c0,15.187-12.313,27.5-27.5,27.5"/>
	<circle fill="none" stroke="#000000" stroke-width="2.5" stroke-miterlimit="10" cx="396" cy="306" r="20.201"/>
	<circle fill="none" stroke="#41C363" stroke-width="2.5" stroke-miterlimit="10" cx="396" cy="306" r="3.849"/>
	
		<line fill="none" stroke="#000000" stroke-width="2.5" stroke-miterlimit="10" x1="378.622" y1="315.826" x2="413.545" y2="315.826"/>
	<line fill="none" stroke="#000000" stroke-width="2.5" stroke-miterlimit="10" x1="396" y1="292.697" x2="396" y2="285.823"/>
	
		<line fill="none" stroke="#000000" stroke-width="2.5" stroke-miterlimit="10" x1="386.446" y1="296.655" x2="381.585" y2="291.793"/>
	
		<line fill="none" stroke="#41C363" stroke-width="2.5" stroke-miterlimit="10" x1="398.727" y1="303.481" x2="410.414" y2="291.793"/>
	
		<line fill="none" stroke="#000000" stroke-width="2.5" stroke-miterlimit="10" x1="382.489" y1="306.209" x2="375.614" y2="306.209"/>
	
		<line fill="none" stroke="#000000" stroke-width="2.5" stroke-miterlimit="10" x1="416.383" y1="306.209" x2="408.271" y2="306.209"/>
</g>
</svg>
