<?xml version="1.0" encoding="utf-8"?>
<!-- Generator: Adobe Illustrator 16.0.3, SVG Export Plug-In . SVG Version: 6.00 Build 0)  -->
<!DOCTYPE svg PUBLIC "-//W3C//DTD SVG 1.1//EN" "http://www.w3.org/Graphics/SVG/1.1/DTD/svg11.dtd">
<svg version="1.1" id="Capa_1" xmlns="http://www.w3.org/2000/svg" xmlns:xlink="http://www.w3.org/1999/xlink" x="0px" y="0px"
	 width="60px" height="60px" viewBox="366 276 60 60" enable-background="new 366 276 60 60" xml:space="preserve">
<g>
	<path fill="none" stroke="#000000" stroke-width="2.5" stroke-miterlimit="10" d="M396,333.5c-15.188,0-27.5-12.313-27.5-27.5
		s12.312-27.5,27.5-27.5c15.189,0,27.5,12.313,27.5,27.5"/>
	<path fill="none" stroke="#41C363" stroke-width="2.5" stroke-miterlimit="10" d="M423.5,306c0,15.188-12.311,27.5-27.5,27.5"/>
	<g>
		<path fill="none" stroke="#000000" stroke-width="2.5" stroke-miterlimit="10" d="M392.47,284.389
			c-10.415,1.689-18.366,10.72-18.366,21.611c0,10.891,7.951,19.921,18.366,21.61V284.389z"/>
		<path fill="none" stroke="#000000" stroke-width="2.5" stroke-miterlimit="10" d="M399.529,284.389v43.222
			c10.416-1.688,18.367-10.72,18.367-21.61C417.896,295.108,409.945,286.078,399.529,284.389z"/>
	</g>
</g>
</svg>
