<?xml version="1.0" encoding="utf-8"?>
<!-- Generator: Adobe Illustrator 16.0.3, SVG Export Plug-In . SVG Version: 6.00 Build 0)  -->
<!DOCTYPE svg PUBLIC "-//W3C//DTD SVG 1.1//EN" "http://www.w3.org/Graphics/SVG/1.1/DTD/svg11.dtd">
<svg version="1.1" id="Capa_1" xmlns="http://www.w3.org/2000/svg" xmlns:xlink="http://www.w3.org/1999/xlink" x="0px" y="0px"
	 width="60px" height="60px" viewBox="366 276 60 60" enable-background="new 366 276 60 60" xml:space="preserve">
<g>
	
		<rect x="375.293" y="297.514" fill="none" stroke="#000000" stroke-width="2.5" stroke-miterlimit="10" width="7.6" height="20.732"/>
	
		<rect x="412.101" y="299.586" fill="none" stroke="#000000" stroke-width="2.5" stroke-miterlimit="10" width="7.6" height="16.587"/>
	
		<rect x="419.7" y="296.517" fill="none" stroke="#000000" stroke-width="2.5" stroke-miterlimit="10" width="3.8" height="22.727"/>
	<line fill="none" stroke="#000000" stroke-width="2.5" stroke-miterlimit="10" x1="368.5" y1="306.38" x2="375.293" y2="306.38"/>
	<line fill="none" stroke="#000000" stroke-width="2.5" stroke-miterlimit="10" x1="368.5" y1="297.514" x2="368.5" y2="315.246"/>
	
		<rect x="389.303" y="286.154" fill="none" stroke="#000000" stroke-width="2.5" stroke-miterlimit="10" width="10.746" height="6.448"/>
	
		<line fill="none" stroke="#000000" stroke-width="2.5" stroke-miterlimit="10" x1="404.349" y1="286.154" x2="385.005" y2="286.154"/>
	<polyline fill="none" stroke="#000000" stroke-width="2.5" stroke-miterlimit="10" points="412.101,300.202 412.101,295.672 
		406.958,295.672 403.503,292.602 386.923,292.602 382.893,297.514 	"/>
	<polyline fill="none" stroke="#000000" stroke-width="2.5" stroke-miterlimit="10" points="397.497,325.846 388.765,325.846 
		382.893,318.246 	"/>
	<polyline fill="none" stroke="#41C363" stroke-width="2.5" stroke-miterlimit="10" points="396.999,300.202 391.835,308.205 
		402.249,308.205 395.88,316.381 	"/>
	<polyline fill="none" stroke="#41C363" stroke-width="2.5" stroke-miterlimit="10" points="412.101,317.021 412.101,319.244 
		406.343,325.846 397.497,325.846 	"/>
</g>
</svg>
