<?xml version="1.0" encoding="utf-8"?>
<!-- Generator: Adobe Illustrator 16.0.3, SVG Export Plug-In . SVG Version: 6.00 Build 0)  -->
<!DOCTYPE svg PUBLIC "-//W3C//DTD SVG 1.1//EN" "http://www.w3.org/Graphics/SVG/1.1/DTD/svg11.dtd">
<svg version="1.1" id="Capa_1" xmlns="http://www.w3.org/2000/svg" xmlns:xlink="http://www.w3.org/1999/xlink" x="0px" y="0px"
	 width="60px" height="60px" viewBox="366 276 60 60" enable-background="new 366 276 60 60" xml:space="preserve">
<g>
	<g>
		<path fill="none" stroke="#000000" stroke-width="2.5" stroke-miterlimit="10" d="M399.023,302.182
			c-4.104-9.598-10.641-19.644-10.641-19.644c-1.641-2.521-4.336-2.528-5.989-0.015c0,0-13.894,21.126-13.894,31.924
			c0,9.325,7.586,16.91,16.911,16.91c3.961,0,7.608-1.369,10.494-3.659"/>
		<path fill="none" stroke="#000000" stroke-width="2.5" stroke-miterlimit="10" d="M418.488,304.225
			c-2.549-4.628-5.115-8.276-5.115-8.276c-1.58-2.246-4.18-2.256-5.777-0.024c0,0-10.072,14.069-10.072,22.294
			c0,7.162,5.827,12.988,12.988,12.988"/>
		<path fill="none" stroke="#41C363" stroke-width="2.5" stroke-miterlimit="10" d="M410.512,331.207
			c7.162,0,12.988-5.826,12.988-12.988c0-3.91-2.497-9.429-5.012-13.994"/>
	</g>
</g>
</svg>
