<?xml version="1.0" encoding="utf-8"?>
<!-- Generator: Adobe Illustrator 16.0.3, SVG Export Plug-In . SVG Version: 6.00 Build 0)  -->
<!DOCTYPE svg PUBLIC "-//W3C//DTD SVG 1.1//EN" "http://www.w3.org/Graphics/SVG/1.1/DTD/svg11.dtd">
<svg version="1.1" id="Capa_1" xmlns="http://www.w3.org/2000/svg" xmlns:xlink="http://www.w3.org/1999/xlink" x="0px" y="0px"
	 width="58px" height="52px" viewBox="0 0 58 52" enable-background="new 0 0 58 52" xml:space="preserve">
<g>
	<g>
		
			<line fill="none" stroke="#41C363" stroke-width="2.5" stroke-linecap="square" stroke-miterlimit="10" x1="13.48" y1="18.616" x2="5.067" y2="14.398"/>
		
			<line fill="none" stroke="#41C363" stroke-width="2.5" stroke-linecap="square" stroke-miterlimit="10" x1="52.682" y1="38.275" x2="44.28" y2="34.063"/>
		
			<line fill="none" stroke="#41C363" stroke-width="2.5" stroke-linecap="square" stroke-miterlimit="10" x1="36.599" y1="10.932" x2="40.813" y2="2.528"/>
		<line fill="none" stroke="#000000" stroke-width="2.5" stroke-miterlimit="10" x1="23.447" y1="9.993" x2="20.484" y2="1.06"/>
		<line fill="none" stroke="#000000" stroke-width="2.5" stroke-miterlimit="10" x1="54.15" y1="17.943" x2="45.134" y2="20.939"/>
		
			<line fill="none" stroke="#41C363" stroke-width="2.5" stroke-linecap="square" stroke-miterlimit="10" x1="21.404" y1="41.072" x2="17.194" y2="49.478"/>
		<line fill="none" stroke="#000000" stroke-width="2.5" stroke-miterlimit="10" x1="12.783" y1="31.097" x2="3.85" y2="34.065"/>
		<line fill="none" stroke="#000000" stroke-width="2.5" stroke-miterlimit="10" x1="37.525" y1="50.94" x2="34.528" y2="41.925"/>
	</g>
	<g>
		<path fill="none" stroke="#000000" stroke-width="2.5" stroke-miterlimit="10" d="M13.718,17.944
			c-4.262,8.509-0.82,18.863,7.686,23.128c8.511,4.266,18.864,0.824,23.13-7.684"/>
		<path fill="none" stroke="#000000" stroke-width="2.5" stroke-linecap="square" stroke-miterlimit="10" d="M44.534,33.389"/>
		<path fill="none" stroke="#000000" stroke-width="2.5" stroke-miterlimit="10" d="M13.469,18.612
			c4.266-8.508,14.622-11.946,23.129-7.68c8.51,4.268,11.948,14.623,7.682,23.131"/>
	</g>
</g>
</svg>
