<?xml version="1.0" encoding="utf-8"?>
<!-- Generator: Adobe Illustrator 16.0.3, SVG Export Plug-In . SVG Version: 6.00 Build 0)  -->
<!DOCTYPE svg PUBLIC "-//W3C//DTD SVG 1.1//EN" "http://www.w3.org/Graphics/SVG/1.1/DTD/svg11.dtd">
<svg version="1.1" id="Capa_1" xmlns="http://www.w3.org/2000/svg" xmlns:xlink="http://www.w3.org/1999/xlink" x="0px" y="0px"
	 width="58px" height="52px" viewBox="0 0 58 52" enable-background="new 0 0 58 52" xml:space="preserve">
<g>
	<g>
		<g>
			<path fill="none" stroke="#000000" stroke-width="2.5" stroke-miterlimit="10" d="M34.628,15.104c-0.315,0-0.631,0-0.944,0.045
				c-0.945-2.069-2.43-3.778-4.229-5.039c-2.069-1.439-4.543-2.249-7.152-2.249c-3.104,0-5.938,1.125-8.187,3.014
				c-1.979,1.709-3.419,4.004-4.049,6.703c-2.024,0.225-3.824,1.125-5.173,2.475c-1.575,1.574-2.564,3.733-2.564,6.164
				c0,2.383,0.99,4.588,2.564,6.163c1.575,1.529,3.734,2.518,6.163,2.518"/>
		</g>
	</g>
	<g>
		<g>
			<path fill="none" stroke="#000000" stroke-width="2.5" stroke-miterlimit="10" d="M47.024,7.783c-0.276,0-0.551,0-0.825,0.039
				c-0.826-1.808-2.123-3.302-3.696-4.403c-1.809-1.257-3.97-1.965-6.249-1.965c-2.713,0-5.189,0.983-7.155,2.634
				c-1.729,1.494-2.765,2.687-3.314,5.045"/>
		</g>
	</g>
	<g>
		<g>
			<path fill="none" stroke="#000000" stroke-width="2.5" stroke-miterlimit="10" d="M44.046,25.079h2.979
				c2.397,0,4.56-0.983,6.133-2.516c1.571-1.572,2.515-3.735,2.515-6.132s-0.982-4.56-2.515-6.132
				c-1.573-1.572-3.735-2.516-6.133-2.516"/>
		</g>
	</g>
	
		<polygon fill="none" stroke="#000000" stroke-width="2" stroke-linecap="round" stroke-linejoin="round" stroke-miterlimit="10" points="
		20.163,35.484 17.652,41.664 20.838,41.664 17.652,50.547 27.791,39.154 23.832,39.057 25.377,34.904 20.517,34.904 	"/>
	<g>
		<g>
			<path fill="none" stroke="#41C363" stroke-width="2.5" stroke-miterlimit="10" d="M11.056,34.896h23.572
				c2.744,0,5.218-1.123,7.018-2.877c1.8-1.801,2.879-4.275,2.879-7.018c0-2.744-1.125-5.219-2.879-7.019
				c-1.8-1.799-4.273-2.879-7.018-2.879"/>
		</g>
	</g>
	<path d="M34.556,42.727c0.68,0,1.135-0.721,0.826-1.338l-1.849-3.697c-0.228-0.455-0.783-0.641-1.239-0.412
		s-0.642,0.783-0.413,1.238l1.848,3.697C33.891,42.539,34.217,42.727,34.556,42.727z"/>
	<path d="M11.98,42.727c-0.679,0-1.135-0.721-0.826-1.338l1.848-3.697c0.228-0.455,0.784-0.641,1.24-0.412
		c0.457,0.229,0.642,0.783,0.414,1.238l-1.848,3.697C12.645,42.539,12.319,42.727,11.98,42.727z"/>
	<path d="M39.177,44.146c0.679,0,1.135-0.721,0.826-1.338l-1.849-3.697c-0.228-0.455-0.782-0.641-1.239-0.412
		c-0.456,0.229-0.642,0.783-0.414,1.238l1.849,3.697C38.512,43.957,38.838,44.146,39.177,44.146z"/>
	<path d="M6.76,44.146c-0.679,0-1.134-0.721-0.826-1.338l1.848-3.697c0.229-0.455,0.784-0.641,1.239-0.412
		c0.457,0.229,0.642,0.783,0.414,1.238l-1.848,3.697C7.426,43.957,7.1,44.146,6.76,44.146z"/>
</g>
</svg>
