<?xml version="1.0" encoding="utf-8"?>
<!-- Generator: Adobe Illustrator 16.0.3, SVG Export Plug-In . SVG Version: 6.00 Build 0)  -->
<!DOCTYPE svg PUBLIC "-//W3C//DTD SVG 1.1//EN" "http://www.w3.org/Graphics/SVG/1.1/DTD/svg11.dtd">
<svg version="1.1" id="Capa_1" xmlns="http://www.w3.org/2000/svg" xmlns:xlink="http://www.w3.org/1999/xlink" x="0px" y="0px"
	 width="58px" height="52px" viewBox="367 280 58 52" enable-background="new 367 280 58 52" xml:space="preserve">
<g>
	<path fill="none" stroke="#000000" stroke-width="2.5" stroke-miterlimit="10" d="M398.793,296.562
		c-4.046-9.463-7.832-13.693-7.832-13.693c-1.617-2.486-4.275-2.492-5.904-0.015c0,0-13.698,20.828-13.698,31.474
		c0,9.193,7.479,16.672,16.673,16.672c3.904,0,7.5-1.351,10.346-3.608"/>
	<path fill="none" stroke="#000000" stroke-width="2.5" stroke-miterlimit="10" d="M414.986,299.902
		c-2.875-5.221-5.77-9.338-5.77-9.338c-1.783-2.533-4.716-2.544-6.52-0.027c0,0-11.362,15.874-11.362,25.152
		c0,8.081,6.573,14.653,14.653,14.653"/>
	<path fill="none" stroke="#41C363" stroke-width="2.5" stroke-miterlimit="10" d="M405.988,330.343
		c8.079,0,14.653-6.572,14.653-14.653c0-4.411-2.817-10.637-5.655-15.788"/>
</g>
</svg>
