<?xml version="1.0" encoding="utf-8"?>
<!-- Generator: Adobe Illustrator 16.0.3, SVG Export Plug-In . SVG Version: 6.00 Build 0)  -->
<!DOCTYPE svg PUBLIC "-//W3C//DTD SVG 1.1//EN" "http://www.w3.org/Graphics/SVG/1.1/DTD/svg11.dtd">
<svg version="1.1" id="Capa_1" xmlns="http://www.w3.org/2000/svg" xmlns:xlink="http://www.w3.org/1999/xlink" x="0px" y="0px"
	 width="58px" height="52px" viewBox="367 280 58 52" enable-background="new 367 280 58 52" xml:space="preserve">
<g>
	
		<line fill="none" stroke="#000000" stroke-width="2.5" stroke-miterlimit="10" x1="378.656" y1="297.372" x2="399.439" y2="297.372"/>
	
		<line fill="none" stroke="#41C363" stroke-width="2.5" stroke-miterlimit="10" x1="368.5" y1="297.372" x2="374.801" y2="297.372"/>
	
		<line fill="none" stroke="#41C363" stroke-width="2.5" stroke-miterlimit="10" x1="383.735" y1="303.955" x2="413.979" y2="303.955"/>
	
		<line fill="none" stroke="#000000" stroke-width="2.5" stroke-miterlimit="10" x1="368.5" y1="310.538" x2="399.439" y2="310.538"/>
	
		<line fill="none" stroke="#000000" stroke-width="2.5" stroke-miterlimit="10" x1="378.656" y1="317.121" x2="399.439" y2="317.121"/>
	<path fill="none" stroke="#41C363" stroke-width="2.5" stroke-miterlimit="10" d="M407.245,287.7c3.72-3.719,9.747-3.719,13.466,0
		s3.719,9.746,0,13.466c-1.86,1.86-4.297,2.789-6.732,2.789"/>
	<path fill="none" stroke="#000000" stroke-width="2.5" stroke-miterlimit="10" d="M398.751,310.538
		c4.572,0,8.275,3.704,8.275,8.275s-3.703,8.275-8.275,8.275c-2.285,0-4.354-0.927-5.852-2.424"/>
</g>
</svg>
