<?xml version="1.0" encoding="utf-8"?>
<!-- Generator: Adobe Illustrator 16.0.3, SVG Export Plug-In . SVG Version: 6.00 Build 0)  -->
<!DOCTYPE svg PUBLIC "-//W3C//DTD SVG 1.1//EN" "http://www.w3.org/Graphics/SVG/1.1/DTD/svg11.dtd">
<svg version="1.1" id="Capa_1" xmlns="http://www.w3.org/2000/svg" xmlns:xlink="http://www.w3.org/1999/xlink" x="0px" y="0px"
	 width="58px" height="52px" viewBox="0 0 58 52" enable-background="new 0 0 58 52" xml:space="preserve">
<g>
	<g>
		<g>
			<path fill="none" stroke="#000000" stroke-width="2.5" stroke-miterlimit="10" d="M34.776,22.848c-0.324,0-0.648,0-0.969,0.047
				c-0.971-2.124-2.494-3.878-4.341-5.171c-2.124-1.478-4.663-2.309-7.34-2.309c-3.186,0-6.095,1.154-8.402,3.093
				c-2.031,1.755-3.509,4.109-4.155,6.879c-2.077,0.231-3.924,1.154-5.309,2.54c-1.616,1.615-2.632,3.831-2.632,6.325
				c0,2.446,1.016,4.708,2.632,6.324c1.616,1.569,3.832,2.584,6.325,2.584"/>
		</g>
	</g>
	<g>
		<g>
			<path fill="none" stroke="#000000" stroke-width="2.5" stroke-miterlimit="10" d="M47.497,15.334c-0.283,0-0.564,0-0.846,0.04
				c-0.848-1.854-2.18-3.388-3.793-4.518c-1.855-1.29-4.074-2.017-6.414-2.017c-2.783,0-5.325,1.009-7.343,2.702
				c-1.774,1.533-2.837,2.758-3.401,5.177"/>
		</g>
	</g>
	<g>
		<g>
			<path fill="none" stroke="#000000" stroke-width="2.5" stroke-miterlimit="10" d="M44.44,33.084h3.057
				c2.461,0,4.68-1.009,6.295-2.581c1.613-1.613,2.58-3.834,2.58-6.293c0-2.461-1.008-4.68-2.58-6.294
				c-1.615-1.613-3.834-2.582-6.295-2.582"/>
		</g>
	</g>
	<g>
		<g>
			<path fill="none" stroke="#41C363" stroke-width="2.5" stroke-miterlimit="10" d="M10.585,43.16h24.191
				c2.816,0,5.355-1.153,7.203-2.953c1.846-1.848,2.953-4.388,2.953-7.202c0-2.816-1.154-5.355-2.953-7.203
				c-1.848-1.846-4.387-2.954-7.203-2.954"/>
		</g>
	</g>
</g>
</svg>
