<?xml version="1.0" encoding="utf-8"?>
<!-- Generator: Adobe Illustrator 16.0.3, SVG Export Plug-In . SVG Version: 6.00 Build 0)  -->
<!DOCTYPE svg PUBLIC "-//W3C//DTD SVG 1.1//EN" "http://www.w3.org/Graphics/SVG/1.1/DTD/svg11.dtd">
<svg version="1.1" id="Capa_1" xmlns="http://www.w3.org/2000/svg" xmlns:xlink="http://www.w3.org/1999/xlink" x="0px" y="0px"
	 width="58px" height="52px" viewBox="0 0 58 52" enable-background="new 0 0 58 52" xml:space="preserve">
<g>
	<path fill="#41C363" stroke="#FFFFFF" stroke-width="2" stroke-miterlimit="10" d="M56.347,24.834v-4.797
		c-2.663,0-3.835-0.823-5.458-1.963c-1.804-1.263-4.043-2.834-8.216-2.834c-4.174,0-6.413,1.571-8.213,2.834
		c-1.625,1.14-2.797,1.963-5.46,1.963c-2.663,0-3.834-0.823-5.458-1.963c-1.799-1.263-4.042-2.834-8.215-2.834
		c-4.174,0-6.413,1.571-8.212,2.834c-1.627,1.14-2.798,1.963-5.461,1.963v4.797c4.174,0,6.413-1.571,8.212-2.834
		c1.627-1.14,2.798-1.963,5.461-1.963c2.663,0,3.834,0.823,5.461,1.963c1.799,1.263,4.038,2.834,8.212,2.834
		c4.175,0,6.416-1.571,8.215-2.834c1.624-1.14,2.796-1.963,5.458-1.963c2.663,0,3.835,0.823,5.461,1.963
		C49.933,23.264,52.172,24.834,56.347,24.834z"/>
	<path stroke="#FFFFFF" stroke-width="2" stroke-miterlimit="10" d="M56.347,12.908V8.11c-2.663,0-3.835-0.823-5.458-1.962
		c-1.804-1.264-4.043-2.835-8.216-2.835c-4.174,0-6.413,1.571-8.213,2.835C32.835,7.287,31.663,8.11,29,8.11
		c-2.663,0-3.834-0.823-5.458-1.962c-1.799-1.264-4.042-2.835-8.215-2.835c-4.174,0-6.413,1.571-8.212,2.835
		C5.488,7.287,4.317,8.11,1.654,8.11v4.798c4.174,0,6.413-1.572,8.212-2.835c1.627-1.139,2.798-1.963,5.461-1.963
		c2.663,0,3.834,0.824,5.461,1.963c1.799,1.263,4.038,2.835,8.212,2.835c4.175,0,6.416-1.572,8.215-2.835
		c1.624-1.139,2.796-1.963,5.458-1.963c2.663,0,3.835,0.824,5.461,1.963C49.933,11.336,52.172,12.908,56.347,12.908z"/>
	<path fill="#41C363" stroke="#FFFFFF" stroke-width="2" stroke-miterlimit="10" d="M56.347,36.761v-4.797
		c-2.663,0-3.835-0.824-5.458-1.963c-1.804-1.264-4.043-2.836-8.216-2.836c-4.174,0-6.413,1.572-8.213,2.836
		c-1.625,1.139-2.797,1.963-5.46,1.963c-2.663,0-3.834-0.824-5.458-1.963c-1.799-1.264-4.042-2.836-8.215-2.836
		c-4.174,0-6.413,1.572-8.212,2.836c-1.627,1.139-2.798,1.963-5.461,1.963v4.797c4.174,0,6.413-1.571,8.212-2.834
		c1.627-1.14,2.798-1.963,5.461-1.963c2.663,0,3.834,0.823,5.461,1.963c1.799,1.263,4.038,2.834,8.212,2.834
		c4.175,0,6.416-1.571,8.215-2.834c1.624-1.14,2.796-1.963,5.458-1.963c2.663,0,3.835,0.823,5.461,1.963
		C49.933,35.189,52.172,36.761,56.347,36.761z"/>
	<path stroke="#FFFFFF" stroke-width="2" stroke-miterlimit="10" d="M56.347,48.687V43.89c-2.663,0-3.835-0.824-5.458-1.963
		c-1.804-1.264-4.043-2.835-8.216-2.835c-4.174,0-6.413,1.571-8.213,2.835c-1.625,1.139-2.797,1.963-5.46,1.963
		c-2.663,0-3.834-0.824-5.458-1.963c-1.799-1.264-4.042-2.835-8.215-2.835c-4.174,0-6.413,1.571-8.212,2.835
		c-1.627,1.139-2.798,1.963-5.461,1.963v4.797c4.174,0,6.413-1.57,8.212-2.834c1.627-1.14,2.798-1.963,5.461-1.963
		c2.663,0,3.834,0.823,5.461,1.963c1.799,1.264,4.038,2.834,8.212,2.834c4.175,0,6.416-1.57,8.215-2.834
		c1.624-1.14,2.796-1.963,5.458-1.963c2.663,0,3.835,0.823,5.461,1.963C49.933,47.116,52.172,48.687,56.347,48.687z"/>
</g>
</svg>
