<?xml version="1.0" encoding="utf-8"?>
<!-- Generator: Adobe Illustrator 16.0.3, SVG Export Plug-In . SVG Version: 6.00 Build 0)  -->
<!DOCTYPE svg PUBLIC "-//W3C//DTD SVG 1.1//EN" "http://www.w3.org/Graphics/SVG/1.1/DTD/svg11.dtd">
<svg version="1.1" id="Capa_1" xmlns="http://www.w3.org/2000/svg" xmlns:xlink="http://www.w3.org/1999/xlink" x="0px" y="0px"
	 width="58px" height="52px" viewBox="0 0 58 52" enable-background="new 0 0 58 52" xml:space="preserve">
<g>
	<g>
		<g>
			<path fill="none" stroke="#000000" stroke-width="2.5" stroke-miterlimit="10" d="M39.88,19.37c-0.329,0-0.656,0-0.984,0.048
				c-0.982-2.154-2.528-3.934-4.401-5.246c-2.154-1.498-4.73-2.341-7.445-2.341c-3.232,0-6.182,1.171-8.523,3.138
				c-2.061,1.779-3.56,4.168-4.215,6.977c-2.106,0.234-3.98,1.17-5.385,2.576c-1.638,1.639-2.669,3.887-2.669,6.417
				c0,2.482,1.031,4.775,2.669,6.415c1.639,1.592,3.887,2.621,6.416,2.621"/>
		</g>
	</g>
	<g>
		<path fill="none" stroke="#000000" stroke-width="2.5" stroke-miterlimit="10" d="M32.612,8.764c2.006-4,6.876-5.618,10.877-3.612
			c4.002,2.007,5.619,6.877,3.612,10.878"/>
		<line fill="none" stroke="#000000" stroke-width="2.5" stroke-miterlimit="10" x1="43.489" y1="5.152" x2="45.471" y2="1.201"/>
		
			<line fill="none" stroke="#000000" stroke-width="2.5" stroke-linecap="square" stroke-miterlimit="10" x1="32.616" y1="8.766" x2="28.66" y2="6.782"/>
		
			<line fill="none" stroke="#000000" stroke-width="2.5" stroke-linecap="square" stroke-miterlimit="10" x1="51.053" y1="18.011" x2="47.102" y2="16.03"/>
		<line fill="none" stroke="#000000" stroke-width="2.5" stroke-miterlimit="10" x1="37.305" y1="4.711" x2="35.91" y2="0.511"/>
		<line fill="none" stroke="#000000" stroke-width="2.5" stroke-miterlimit="10" x1="51.743" y1="8.45" x2="47.503" y2="9.859"/>
	</g>
	<g>
		<g>
			<path fill="none" stroke="#41C363" stroke-width="2.5" stroke-miterlimit="10" d="M15.342,39.974H39.88
				c2.856,0,5.432-1.17,7.305-2.996c1.874-1.873,2.997-4.449,2.997-7.305c0-2.857-1.171-5.433-2.997-7.306
				c-1.873-1.873-4.448-2.997-7.305-2.997"/>
		</g>
	</g>
	<g>
		<path d="M30.048,48.123c-0.707,0-1.182-0.748-0.861-1.393l1.925-3.848c0.236-0.475,0.814-0.668,1.29-0.43
			c0.476,0.237,0.667,0.815,0.43,1.29l-1.923,3.848C30.739,47.928,30.399,48.123,30.048,48.123z"/>
		<path d="M38.704,48.123c-0.707,0-1.181-0.748-0.859-1.393l1.924-3.848c0.237-0.475,0.815-0.668,1.29-0.43
			c0.476,0.237,0.668,0.815,0.431,1.29l-1.923,3.848C39.396,47.928,39.057,48.123,38.704,48.123z"/>
		<path d="M21.391,48.123c-0.707,0-1.182-0.748-0.859-1.393l1.924-3.848c0.237-0.475,0.815-0.668,1.29-0.43
			c0.475,0.237,0.667,0.815,0.43,1.29l-1.924,3.848C22.083,47.928,21.744,48.123,21.391,48.123L21.391,48.123z"/>
		<path d="M12.733,48.123c-0.707,0-1.182-0.748-0.859-1.393l1.924-3.848c0.237-0.475,0.815-0.668,1.29-0.43
			c0.476,0.237,0.667,0.815,0.431,1.29l-1.924,3.848C13.426,47.928,13.086,48.123,12.733,48.123z"/>
		<path d="M24.276,51.489c-0.707,0-1.182-0.749-0.859-1.392l1.924-3.849c0.237-0.475,0.814-0.667,1.291-0.431
			c0.475,0.239,0.667,0.816,0.429,1.291l-1.923,3.849C24.969,51.294,24.629,51.489,24.276,51.489L24.276,51.489z"/>
		<path d="M32.932,51.489c-0.705,0-1.18-0.749-0.858-1.392l1.923-3.849c0.238-0.475,0.815-0.667,1.292-0.431
			c0.475,0.239,0.667,0.816,0.431,1.291l-1.925,3.849C33.626,51.294,33.285,51.489,32.932,51.489z"/>
		<path d="M15.619,51.489c-0.706,0-1.181-0.749-0.859-1.392l1.924-3.849c0.238-0.475,0.815-0.667,1.29-0.431
			c0.476,0.239,0.668,0.816,0.431,1.291l-1.924,3.849C16.312,51.294,15.972,51.489,15.619,51.489z"/>
	</g>
</g>
</svg>
