<?xml version="1.0" encoding="utf-8"?>
<!-- Generator: Adobe Illustrator 16.0.3, SVG Export Plug-In . SVG Version: 6.00 Build 0)  -->
<!DOCTYPE svg PUBLIC "-//W3C//DTD SVG 1.1//EN" "http://www.w3.org/Graphics/SVG/1.1/DTD/svg11.dtd">
<svg version="1.1" id="Capa_1" xmlns="http://www.w3.org/2000/svg" xmlns:xlink="http://www.w3.org/1999/xlink" x="0px" y="0px"
	 width="58px" height="52px" viewBox="0 0 58 52" enable-background="new 0 0 58 52" xml:space="preserve">
<g>
	<g>
		<g>
			<path fill="none" stroke="#000000" stroke-width="2.5" stroke-miterlimit="10" d="M42.155,24.946c-0.397,0-0.794,0-1.189,0.057
				c-1.189-2.604-3.058-4.756-5.323-6.342c-2.604-1.813-5.719-2.831-9.002-2.831c-3.907,0-7.475,1.416-10.305,3.794
				c-2.492,2.151-4.305,5.039-5.097,8.437c-2.548,0.283-4.813,1.414-6.511,3.113C2.746,33.156,1.5,35.873,1.5,38.932
				c0,3.002,1.246,5.775,3.229,7.758c1.981,1.924,4.699,3.17,7.757,3.17h20.888"/>
		</g>
	</g>
	<g>
		<path fill="none" stroke="#000000" stroke-width="2.5" stroke-miterlimit="10" d="M33.367,12.122
			c2.426-4.838,8.314-6.793,13.152-4.367c4.839,2.427,6.794,8.315,4.368,13.152"/>
		<line fill="none" stroke="#000000" stroke-width="2.5" stroke-miterlimit="10" x1="46.52" y1="7.754" x2="48.916" y2="2.977"/>
		
			<line fill="none" stroke="#000000" stroke-width="2.5" stroke-linecap="square" stroke-miterlimit="10" x1="33.373" y1="12.125" x2="28.59" y2="9.725"/>
		
			<line fill="none" stroke="#000000" stroke-width="2.5" stroke-linecap="square" stroke-miterlimit="10" x1="55.664" y1="23.303" x2="50.888" y2="20.907"/>
		<line fill="none" stroke="#000000" stroke-width="2.5" stroke-miterlimit="10" x1="39.041" y1="7.221" x2="37.355" y2="2.141"/>
		<line fill="none" stroke="#000000" stroke-width="2.5" stroke-miterlimit="10" x1="56.5" y1="11.742" x2="51.373" y2="13.446"/>
	</g>
	<g>
		<g>
			<path fill="none" stroke="#41C363" stroke-width="2.5" stroke-miterlimit="10" d="M12.485,49.859h29.67
				c3.453,0,6.567-1.416,8.833-3.623c2.265-2.266,3.623-5.381,3.623-8.834s-1.416-6.568-3.623-8.834
				c-2.266-2.263-5.38-3.623-8.833-3.623"/>
		</g>
	</g>
</g>
</svg>
