<?xml version="1.0" encoding="utf-8"?>
<!-- Generator: Adobe Illustrator 16.0.3, SVG Export Plug-In . SVG Version: 6.00 Build 0)  -->
<!DOCTYPE svg PUBLIC "-//W3C//DTD SVG 1.1//EN" "http://www.w3.org/Graphics/SVG/1.1/DTD/svg11.dtd">
<svg version="1.1" id="Capa_1" xmlns="http://www.w3.org/2000/svg" xmlns:xlink="http://www.w3.org/1999/xlink" x="0px" y="0px"
	 width="58px" height="52px" viewBox="367 280 58 52" enable-background="new 367 280 58 52" xml:space="preserve">
<g>
	<g>
		<g>
			<path fill="none" stroke="#000000" stroke-width="2.5" stroke-miterlimit="10" d="M409.155,304.945c-0.397,0-0.794,0-1.189,0.057
				c-1.189-2.604-3.058-4.756-5.323-6.342c-2.604-1.812-5.719-2.831-9.002-2.831c-3.907,0-7.475,1.416-10.306,3.794
				c-2.491,2.151-4.304,5.04-5.096,8.437c-2.548,0.283-4.813,1.416-6.512,3.114c-1.981,1.981-3.228,4.699-3.228,7.758
				c0,3.001,1.246,5.774,3.228,7.757c1.982,1.925,4.7,3.17,7.758,3.17h20.888"/>
		</g>
	</g>
	<g>
		<path fill="none" stroke="#000000" stroke-width="2.5" stroke-miterlimit="10" d="M400.367,292.122
			c2.426-4.838,8.314-6.793,13.152-4.367c4.839,2.426,6.794,8.314,4.368,13.152"/>
		
			<line fill="none" stroke="#000000" stroke-width="2.5" stroke-miterlimit="10" x1="413.52" y1="287.755" x2="415.916" y2="282.977"/>
		
			<line fill="none" stroke="#000000" stroke-width="2.5" stroke-linecap="square" stroke-miterlimit="10" x1="400.373" y1="292.124" x2="395.589" y2="289.726"/>
		
			<line fill="none" stroke="#000000" stroke-width="2.5" stroke-linecap="square" stroke-miterlimit="10" x1="422.664" y1="303.303" x2="417.888" y2="300.907"/>
		
			<line fill="none" stroke="#000000" stroke-width="2.5" stroke-miterlimit="10" x1="406.041" y1="287.221" x2="404.355" y2="282.142"/>
		
			<line fill="none" stroke="#000000" stroke-width="2.5" stroke-miterlimit="10" x1="423.5" y1="291.741" x2="418.373" y2="293.445"/>
	</g>
	<g>
		<g>
			<path fill="none" stroke="#41C363" stroke-width="2.5" stroke-miterlimit="10" d="M379.485,329.858h29.67
				c3.453,0,6.567-1.415,8.833-3.623c2.265-2.265,3.623-5.38,3.623-8.833c0-3.454-1.416-6.568-3.623-8.833
				c-2.266-2.265-5.38-3.624-8.833-3.624"/>
		</g>
	</g>
</g>
</svg>
